<svg width="1462" height="1361" viewBox="0 0 1462 1361" fill="none" xmlns="http://www.w3.org/2000/svg">
<path pathLength="1000" d="M833 574C833 578.418 836.582 582 841 582C845.418 582 849 578.418 849 574C849 569.582 845.418 566 841 566C836.582 566 833 569.582 833 574ZM1310 277C1310 281.418 1313.58 285 1318 285C1322.42 285 1326 281.418 1326 277C1326 272.582 1322.42 269 1318 269C1313.58 269 1310 272.582 1310 277ZM841 574V575.5H1174.52V574V572.5H841V574ZM1214.52 534H1216.02V317H1214.52H1213.02V534H1214.52ZM1254.52 277V278.5H1318V277V275.5H1254.52V277ZM1214.52 317H1216.02C1216.02 295.737 1233.26 278.5 1254.52 278.5V277V275.5C1231.6 275.5 1213.02 294.08 1213.02 317H1214.52ZM1174.52 574V575.5C1197.44 575.5 1216.02 556.92 1216.02 534H1214.52H1213.02C1213.02 555.263 1195.78 572.5 1174.52 572.5V574Z" stroke="#AC89D8" stroke-width="4" stroke-linecap="round" stroke-dasharray="1000" stroke-dashoffset="1000"><animate attributeName="stroke-dashoffset" values="1000;0" dur="3s" repeatCount="indefinite" begin="0s"/></path>
<path pathLength="1000" d="M448.5 596.5C448.5 600.918 444.918 604.5 440.5 604.5C436.082 604.5 432.5 600.918 432.5 596.5C432.5 592.082 436.082 588.5 440.5 588.5C444.918 588.5 448.5 592.082 448.5 596.5ZM72 8C72 12.4183 68.4183 16 64 16C59.5817 16 56 12.4183 56 8C56 3.58172 59.5817 0 64 0C68.4183 0 72 3.58172 72 8ZM440.5 596.5V598H347V596.5V595H440.5V596.5ZM307 556.5H305.5V48H307H308.5V556.5H307ZM267 8V9.5H64V8V6.5H267V8ZM307 48H305.5C305.5 26.7371 288.263 9.5 267 9.5V8V6.5C289.92 6.5 308.5 25.0802 308.5 48H307ZM347 596.5V598C324.08 598 305.5 579.42 305.5 556.5H307H308.5C308.5 577.763 325.737 595 347 595V596.5Z" stroke="#AC89D8" stroke-width="4" stroke-linecap="round" stroke-dasharray="1000" stroke-dashoffset="1000"><animate attributeName="stroke-dashoffset" values="1000;0" dur="3s" repeatCount="indefinite" begin="1s"/></path>
<path pathLength="1000" d="M8 847C3.58173 847 0 843.418 0 839C0 834.582 3.58173 831 8 831C12.4183 831 16 834.582 16 839C16 843.418 12.4183 847 8 847ZM401 713C396.582 713 393 709.418 393 705C393 700.582 396.582 697 401 697C405.418 697 409 700.582 409 705C409 709.418 405.418 713 401 713ZM8 839H6.5V745H8H9.5V839H8ZM48 705V703.5H401V705V706.5H48V705ZM8 745H6.5C6.5 722.08 25.0802 703.5 48 703.5V705V706.5C26.7371 706.5 9.5 723.737 9.5 745H8Z" stroke="#AC89D8" stroke-width="4" stroke-linecap="round" stroke-dasharray="1000" stroke-dashoffset="1000"><animate attributeName="stroke-dashoffset" values="1000;0" dur="3s" repeatCount="indefinite" begin="2s"/></path>
<path pathLength="1000" d="M1454 848C1458.42 848 1462 844.418 1462 840C1462 835.582 1458.42 832 1454 832C1449.58 832 1446 835.582 1446 840C1446 844.418 1449.58 848 1454 848ZM854 714C858.418 714 862 710.418 862 706C862 701.582 858.418 698 854 698C849.582 698 846 701.582 846 706C846 710.418 849.582 714 854 714ZM1454 840H1455.5V746H1454H1452.5V840H1454ZM1414 706V704.5H854V706V707.5H1414V706ZM1454 746H1455.5C1455.5 723.08 1436.92 704.5 1414 704.5V706V707.5C1435.26 707.5 1452.5 724.737 1452.5 746H1454Z" stroke="#AC89D8" stroke-width="4" stroke-linecap="round" stroke-dasharray="1000" stroke-dashoffset="1000"><animate attributeName="stroke-dashoffset" values="1000;0" dur="3s" repeatCount="indefinite" begin="3s"/></path>
<path pathLength="1000" d="M779 1353C779 1357.42 782.582 1361 787 1361C791.418 1361 795 1357.42 795 1353C795 1348.58 791.418 1345 787 1345C782.582 1345 779 1348.58 779 1353ZM913 1098C913 1102.42 916.582 1106 921 1106C925.418 1106 929 1102.42 929 1098C929 1093.58 925.418 1090 921 1090C916.582 1090 913 1093.58 913 1098ZM787 1353V1354.5H881V1353V1351.5H787V1353ZM921 1313H922.5V1098H921H919.5V1313H921ZM881 1353V1354.5C903.92 1354.5 922.5 1335.92 922.5 1313H921H919.5C919.5 1334.26 902.263 1351.5 881 1351.5V1353Z" stroke="#AC89D8" stroke-width="4" stroke-linecap="round" stroke-dasharray="1000" stroke-dashoffset="1000"><animate attributeName="stroke-dashoffset" values="1000;0" dur="3s" repeatCount="indefinite" begin="4s"/></path>
</svg>
