<?xml version="1.0" encoding="UTF-8"?>
<svg width="32" height="32" viewBox="0 0 24 24" fill="none" xmlns="http://www.w3.org/2000/svg">
  <path d="M12 3C16.4183 3 20 6.58172 20 11C20 12.0101 19.8209 12.9819 19.4933 13.884C19.1702 14.7726 18.709 15.5915 18.1341 16.3139C18.0525 16.421 18 16.5507 18 16.6842V19C18 19.5523 17.5523 20 17 20H15C14.4477 20 14 19.5523 14 19V18C14 17.4477 13.5523 17 13 17H11C10.4477 17 10 17.4477 10 18V19C10 19.5523 9.55229 20 9 20H7C6.44772 20 6 19.5523 6 19V16.6842C6 16.5507 5.94749 16.421 5.86588 16.3139C5.29098 15.5915 4.82979 14.7726 4.50671 13.884C4.17912 12.9819 4 12.0101 4 11C4 6.58172 7.58172 3 12 3Z" fill="#000000"/>
  <path d="M12 7C10.3431 7 9 8.34315 9 10C9 11.6569 10.3431 13 12 13C13.6569 13 15 11.6569 15 10C15 8.34315 13.6569 7 12 7Z" fill="#000000"/>
</svg>
